<svg xmlns="http://www.w3.org/2000/svg" viewBox="0 0 544 544" width="40">
  <g>
    <path fill="#427cac" class="cls-1" d="M61,792.45V658h41.36a64.68,64.68,0,0,1,24.89,4.67,56.08,56.08,0,0,1,19.39,13.11,60.06,60.06,0,0,1,12.6,20.27,72.7,72.7,0,0,1,4.53,26.22v6.09a73.27,73.27,0,0,1-4.48,26.18,58.71,58.71,0,0,1-12.65,20.22,56.26,56.26,0,0,1-19.53,13.06,65.79,65.79,0,0,1-25,4.62Zm27.7-112V770.2h13.39q16.43,0,25-10.85t8.59-31v-6.28q0-20.49-8.5-31.07t-24.84-10.57Z" transform="translate(-61 -250.3)"/>
    <path fill="#427cac" class="cls-1" d="M274.42,753.67,292.51,658h27.61L290.3,792.45H262.41l-21.88-89.93-21.88,89.93H190.76L160.94,658h27.61l18.19,95.48L228.9,658h23.45Z" transform="translate(-61 -250.3)"/>
    <path fill="#427cac" class="cls-1" d="M390.61,757.18a18.52,18.52,0,0,0-1-6.33,12.29,12.29,0,0,0-3.92-5.21,36,36,0,0,0-8-4.71A124.91,124.91,0,0,0,364.38,736a163.52,163.52,0,0,1-17.4-6.65,63.65,63.65,0,0,1-14.31-8.73,38.67,38.67,0,0,1-9.7-11.59,31.63,31.63,0,0,1-3.55-15.32,32.59,32.59,0,0,1,3.65-15.38,34.57,34.57,0,0,1,10.25-11.86A50.5,50.5,0,0,1,349,658.89a69.67,69.67,0,0,1,20-2.72,63.1,63.1,0,0,1,20.31,3.09,46.64,46.64,0,0,1,15.61,8.63,38.25,38.25,0,0,1,10,13.16,39.37,39.37,0,0,1,3.51,16.67H390.7a22.42,22.42,0,0,0-1.34-7.85,15.94,15.94,0,0,0-4.11-6.19,19,19,0,0,0-6.92-4,30,30,0,0,0-9.79-1.43,33.17,33.17,0,0,0-9.46,1.2,19.11,19.11,0,0,0-6.65,3.32,13.93,13.93,0,0,0-4,5,14.07,14.07,0,0,0-1.34,6.09q0,6.64,6.79,11.13t19.89,8.35a131,131,0,0,1,19.35,7.57,57.58,57.58,0,0,1,13.94,9.42,36,36,0,0,1,8.45,11.82A37,37,0,0,1,418.4,757a34.78,34.78,0,0,1-3.46,15.78,32.61,32.61,0,0,1-9.84,11.68,46.45,46.45,0,0,1-15.37,7.3,74,74,0,0,1-20.08,2.54,77.59,77.59,0,0,1-13.3-1.16,64,64,0,0,1-12.69-3.55,54.78,54.78,0,0,1-11.22-6,41.36,41.36,0,0,1-9-8.5,38.52,38.52,0,0,1-6-11.12,42,42,0,0,1-2.17-13.81h27.8A24.69,24.69,0,0,0,345,760.5a17.62,17.62,0,0,0,5.4,6.88,22.15,22.15,0,0,0,8.35,3.83,45.82,45.82,0,0,0,10.9,1.2,33.5,33.5,0,0,0,9.32-1.15,19.12,19.12,0,0,0,6.56-3.19,12.56,12.56,0,0,0,3.83-4.84A14.83,14.83,0,0,0,390.61,757.18Z" transform="translate(-61 -250.3)"/>
  </g>
  <polygon fill="white" points="50 50 145.24 50 145.24 0 0 0 0 145.24 50 145.24 50 50"/>
  <polygon fill="white" points="494 50 494 145.24 544 145.24 544 0 398.76 0 398.76 50 494 50"/>
  <polygon fill="white" points="494 494 398.76 494 398.76 544 544 544 544 398.76 494 398.76 494 494"/>
</svg>
